<svg width="18" height="19" viewBox="0 0 18 19" fill="none" xmlns="http://www.w3.org/2000/svg">
<path d="M17.6148 13.8071C17.1162 12.9482 16.375 10.5179 16.375 7.34375C16.375 5.43751 15.6177 3.60934 14.2698 2.26142C12.9219 0.913502 11.0937 0.15625 9.1875 0.15625C7.28126 0.15625 5.45309 0.913502 4.10517 2.26142C2.75725 3.60934 2 5.43751 2 7.34375C2 10.5188 1.25789 12.9482 0.759258 13.8071C0.631923 14.0255 0.564418 14.2735 0.56355 14.5263C0.562682 14.7791 0.628483 15.0276 0.754315 15.2468C0.880148 15.4661 1.06156 15.6482 1.28027 15.775C1.49897 15.9017 1.74723 15.9686 2 15.9688H5.66652C5.83235 16.7802 6.27335 17.5094 6.91493 18.0332C7.55651 18.5569 8.3593 18.8429 9.1875 18.8429C10.0157 18.8429 10.8185 18.5569 11.4601 18.0332C12.1016 17.5094 12.5426 16.7802 12.7085 15.9688H16.375C16.6277 15.9684 16.8758 15.9015 17.0944 15.7747C17.313 15.6478 17.4943 15.4657 17.62 15.2465C17.7457 15.0273 17.8115 14.7788 17.8106 14.5261C17.8096 14.2734 17.7421 14.0254 17.6148 13.8071ZM9.1875 17.4062C8.74171 17.4061 8.30693 17.2678 7.94298 17.0104C7.57904 16.7529 7.30383 16.389 7.15523 15.9688H11.2198C11.0712 16.389 10.796 16.7529 10.432 17.0104C10.0681 17.2678 9.63329 17.4061 9.1875 17.4062ZM2 14.5312C2.6918 13.3417 3.4375 10.5853 3.4375 7.34375C3.4375 5.81876 4.0433 4.35622 5.12164 3.27789C6.19997 2.19955 7.6625 1.59375 9.1875 1.59375C10.7125 1.59375 12.175 2.19955 13.2534 3.27789C14.3317 4.35622 14.9375 5.81876 14.9375 7.34375C14.9375 10.5826 15.6814 13.339 16.375 14.5312H2Z" fill="current"/>
</svg>
