<svg width="27" height="26" viewBox="0 0 27 26" fill="none" xmlns="http://www.w3.org/2000/svg">
<path d="M13.5 0C10.9288 0 8.41543 0.762437 6.27759 2.1909C4.13975 3.61935 2.47351 5.64968 1.48957 8.02512C0.505633 10.4006 0.248189 13.0144 0.749797 15.5362C1.25141 18.0579 2.48953 20.3743 4.30762 22.1924C6.1257 24.0105 8.44208 25.2486 10.9638 25.7502C13.4856 26.2518 16.0995 25.9944 18.4749 25.0104C20.8503 24.0265 22.8807 22.3603 24.3091 20.2224C25.7376 18.0846 26.5 15.5712 26.5 13C26.4964 9.5533 25.1256 6.24882 22.6884 3.81163C20.2512 1.37445 16.9467 0.00363977 13.5 0ZM13.5 24C11.3244 24 9.19767 23.3549 7.38873 22.1462C5.57979 20.9375 4.16989 19.2195 3.33733 17.2095C2.50477 15.1995 2.28693 12.9878 2.71137 10.854C3.13581 8.72022 4.18345 6.7602 5.72183 5.22183C7.26021 3.68345 9.22022 2.6358 11.354 2.21136C13.4878 1.78692 15.6995 2.00476 17.7095 2.83733C19.7195 3.66989 21.4375 5.07979 22.6462 6.88873C23.8549 8.69767 24.5 10.8244 24.5 13C24.4967 15.9164 23.3367 18.7123 21.2745 20.7745C19.2123 22.8367 16.4164 23.9967 13.5 24ZM12.5 14V7C12.5 6.73478 12.6054 6.48043 12.7929 6.29289C12.9804 6.10536 13.2348 6 13.5 6C13.7652 6 14.0196 6.10536 14.2071 6.29289C14.3946 6.48043 14.5 6.73478 14.5 7V14C14.5 14.2652 14.3946 14.5196 14.2071 14.7071C14.0196 14.8946 13.7652 15 13.5 15C13.2348 15 12.9804 14.8946 12.7929 14.7071C12.6054 14.5196 12.5 14.2652 12.5 14ZM15 18.5C15 18.7967 14.912 19.0867 14.7472 19.3334C14.5824 19.58 14.3481 19.7723 14.074 19.8858C13.7999 19.9993 13.4983 20.0291 13.2074 19.9712C12.9164 19.9133 12.6491 19.7704 12.4393 19.5607C12.2296 19.3509 12.0867 19.0836 12.0288 18.7926C11.971 18.5017 12.0007 18.2001 12.1142 17.926C12.2277 17.6519 12.42 17.4176 12.6667 17.2528C12.9133 17.088 13.2033 17 13.5 17C13.8978 17 14.2794 17.158 14.5607 17.4393C14.842 17.7206 15 18.1022 15 18.5Z" fill="#5874E9"/>
</svg>
