<svg width="6" height="12" viewBox="0 0 6 12" fill="none" xmlns="http://www.w3.org/2000/svg">
<path d="M0.293356 1.64412C0.249805 1.60057 0.215258 1.54887 0.191689 1.49197C0.168118 1.43506 0.155986 1.37407 0.155986 1.31248C0.155986 1.25089 0.168118 1.1899 0.191689 1.133C0.215258 1.0761 0.249805 1.02439 0.293356 0.980842C0.336908 0.93729 0.388612 0.902743 0.445515 0.879173C0.502418 0.855603 0.563406 0.843472 0.624998 0.843472C0.686589 0.843472 0.747577 0.855603 0.80448 0.879173C0.861383 0.902743 0.913086 0.93729 0.956638 0.980842L5.64414 5.66834C5.68772 5.71188 5.7223 5.76357 5.74588 5.82048C5.76947 5.87739 5.78162 5.93838 5.78162 5.99998C5.78162 6.06158 5.76947 6.12258 5.74588 6.17949C5.7223 6.23639 5.68772 6.28809 5.64414 6.33162L0.956638 11.0191C0.868682 11.1071 0.749387 11.1565 0.624998 11.1565C0.500608 11.1565 0.381313 11.1071 0.293356 11.0191C0.2054 10.9312 0.155986 10.8119 0.155986 10.6875C0.155986 10.5631 0.2054 10.4438 0.293356 10.3558L4.6498 5.99998L0.293356 1.64412Z" fill="black"/>
</svg>
