<svg width="7" height="14" viewBox="0 0 7 14" fill="none" xmlns="http://www.w3.org/2000/svg">
<path d="M6.64797 12.227C6.70023 12.2792 6.74169 12.3413 6.76997 12.4096C6.79825 12.4779 6.81281 12.551 6.81281 12.6249C6.81281 12.6989 6.79825 12.772 6.76997 12.8403C6.74169 12.9086 6.70023 12.9707 6.64797 13.0229C6.59571 13.0752 6.53366 13.1166 6.46538 13.1449C6.3971 13.1732 6.32391 13.1878 6.25 13.1878C6.17609 13.1878 6.1029 13.1732 6.03462 13.1449C5.96634 13.1166 5.90429 13.0752 5.85203 13.0229L0.227031 7.39792C0.174732 7.34567 0.133243 7.28364 0.104935 7.21535C0.0766279 7.14706 0.0620575 7.07387 0.0620575 6.99995C0.0620575 6.92603 0.0766279 6.85283 0.104935 6.78454C0.133243 6.71626 0.174732 6.65422 0.227031 6.60198L5.85203 0.976978C5.95758 0.87143 6.10073 0.812134 6.25 0.812134C6.39927 0.812134 6.54242 0.87143 6.64797 0.976978C6.75352 1.08253 6.81281 1.22568 6.81281 1.37495C6.81281 1.52421 6.75352 1.66737 6.64797 1.77292L1.42023 6.99995L6.64797 12.227Z" fill="black"/>
</svg>
