<svg width="18" height="14" viewBox="0 0 18 14" fill="none" xmlns="http://www.w3.org/2000/svg">
<path d="M16.875 5.3125H16.1156L14.1623 0.917969C14.0739 0.719144 13.9298 0.55022 13.7473 0.431663C13.5649 0.313105 13.352 0.250003 13.1344 0.25H4.86562C4.64804 0.250003 4.43512 0.313105 4.25266 0.431663C4.07021 0.55022 3.92605 0.719144 3.83766 0.917969L1.88437 5.3125H1.125C0.975816 5.3125 0.832742 5.37176 0.727252 5.47725C0.621763 5.58274 0.5625 5.72582 0.5625 5.875C0.5625 6.02418 0.621763 6.16726 0.727252 6.27275C0.832742 6.37824 0.975816 6.4375 1.125 6.4375H1.6875V12.0625C1.6875 12.3609 1.80603 12.647 2.017 12.858C2.22798 13.069 2.51413 13.1875 2.8125 13.1875H4.5C4.79837 13.1875 5.08452 13.069 5.2955 12.858C5.50647 12.647 5.625 12.3609 5.625 12.0625V10.9375H12.375V12.0625C12.375 12.3609 12.4935 12.647 12.7045 12.858C12.9155 13.069 13.2016 13.1875 13.5 13.1875H15.1875C15.4859 13.1875 15.772 13.069 15.983 12.858C16.194 12.647 16.3125 12.3609 16.3125 12.0625V6.4375H16.875C17.0242 6.4375 17.1673 6.37824 17.2727 6.27275C17.3782 6.16726 17.4375 6.02418 17.4375 5.875C17.4375 5.72582 17.3782 5.58274 17.2727 5.47725C17.1673 5.37176 17.0242 5.3125 16.875 5.3125ZM4.86562 1.375H13.1344L14.8845 5.3125H3.11555L4.86562 1.375ZM4.5 12.0625H2.8125V10.9375H4.5V12.0625ZM13.5 12.0625V10.9375H15.1875V12.0625H13.5ZM15.1875 9.8125H2.8125V6.4375H15.1875V9.8125ZM3.9375 8.125C3.9375 7.97582 3.99676 7.83274 4.10225 7.72725C4.20774 7.62176 4.35082 7.5625 4.5 7.5625H5.625C5.77418 7.5625 5.91726 7.62176 6.02275 7.72725C6.12824 7.83274 6.1875 7.97582 6.1875 8.125C6.1875 8.27418 6.12824 8.41726 6.02275 8.52275C5.91726 8.62824 5.77418 8.6875 5.625 8.6875H4.5C4.35082 8.6875 4.20774 8.62824 4.10225 8.52275C3.99676 8.41726 3.9375 8.27418 3.9375 8.125ZM11.8125 8.125C11.8125 7.97582 11.8718 7.83274 11.9773 7.72725C12.0827 7.62176 12.2258 7.5625 12.375 7.5625H13.5C13.6492 7.5625 13.7923 7.62176 13.8977 7.72725C14.0032 7.83274 14.0625 7.97582 14.0625 8.125C14.0625 8.27418 14.0032 8.41726 13.8977 8.52275C13.7923 8.62824 13.6492 8.6875 13.5 8.6875H12.375C12.2258 8.6875 12.0827 8.62824 11.9773 8.52275C11.8718 8.41726 11.8125 8.27418 11.8125 8.125Z" fill="black"/>
</svg>
