<svg width="19" height="19" viewBox="0 0 19 19" fill="none" xmlns="http://www.w3.org/2000/svg">
<path d="M10.5781 9.49995C10.5781 9.71318 10.5149 9.92163 10.3964 10.0989C10.278 10.2762 10.1096 10.4144 9.91258 10.496C9.71558 10.5776 9.4988 10.599 9.28967 10.5574C9.08053 10.5158 8.88843 10.4131 8.73765 10.2623C8.58687 10.1115 8.48419 9.91942 8.44259 9.71028C8.40099 9.50115 8.42234 9.28437 8.50394 9.08737C8.58554 8.89037 8.72373 8.72199 8.90103 8.60352C9.07832 8.48506 9.28677 8.42183 9.5 8.42183C9.78594 8.42183 10.0602 8.53541 10.2623 8.7376C10.4645 8.93979 10.5781 9.21402 10.5781 9.49995ZM5.54687 8.42183C5.33364 8.42183 5.1252 8.48506 4.9479 8.60352C4.7706 8.72199 4.63242 8.89037 4.55082 9.08737C4.46922 9.28437 4.44787 9.50115 4.48947 9.71028C4.53106 9.91942 4.63375 10.1115 4.78452 10.2623C4.9353 10.4131 5.12741 10.5158 5.33654 10.5574C5.54568 10.599 5.76245 10.5776 5.95946 10.496C6.15646 10.4144 6.32484 10.2762 6.4433 10.0989C6.56177 9.92163 6.625 9.71318 6.625 9.49995C6.625 9.21402 6.51141 8.93979 6.30922 8.7376C6.10704 8.53541 5.83281 8.42183 5.54687 8.42183ZM13.4531 8.42183C13.2399 8.42183 13.0314 8.48506 12.8542 8.60352C12.6769 8.72199 12.5387 8.89037 12.4571 9.08737C12.3755 9.28437 12.3541 9.50115 12.3957 9.71028C12.4373 9.91942 12.54 10.1115 12.6908 10.2623C12.8416 10.4131 13.0337 10.5158 13.2428 10.5574C13.4519 10.599 13.6687 10.5776 13.8657 10.496C14.0627 10.4144 14.2311 10.2762 14.3496 10.0989C14.468 9.92163 14.5312 9.71318 14.5312 9.49995C14.5312 9.21402 14.4177 8.93979 14.2155 8.7376C14.0133 8.53541 13.7391 8.42183 13.4531 8.42183ZM18.8438 9.49995C18.8441 11.1131 18.4268 12.6989 17.6325 14.103C16.8381 15.507 15.6938 16.6815 14.3109 17.5121C12.9279 18.3426 11.3535 18.801 9.74091 18.8426C8.12827 18.8842 6.53233 18.5076 5.10844 17.7494L2.04926 18.7691C1.79598 18.8536 1.52417 18.8659 1.26432 18.8045C1.00446 18.7432 0.766817 18.6107 0.578022 18.4219C0.389228 18.2331 0.256744 17.9955 0.19542 17.7356C0.134095 17.4758 0.146353 17.204 0.23082 16.9507L1.25055 13.8915C0.58404 12.6384 0.211771 11.2499 0.161998 9.83145C0.112224 8.41298 0.386255 7.00182 0.963289 5.70507C1.54032 4.40832 2.40519 3.26007 3.49225 2.34748C4.57931 1.43489 5.85999 0.781943 7.23708 0.438199C8.61416 0.094455 10.0515 0.068951 11.4399 0.363622C12.8283 0.658294 14.1313 1.2654 15.2501 2.13885C16.3688 3.0123 17.2739 4.12914 17.8966 5.4046C18.5192 6.68006 18.8432 8.08061 18.8438 9.49995ZM17.4062 9.49995C17.4059 8.28717 17.1266 7.09073 16.5898 6.00318C16.0531 4.91564 15.2734 3.96615 14.311 3.22817C13.3486 2.49019 12.2293 1.98351 11.0397 1.74732C9.85016 1.51114 8.62221 1.55178 7.45087 1.86611C6.27953 2.18043 5.19621 2.76001 4.28471 3.56001C3.37321 4.36001 2.65797 5.35899 2.19432 6.47964C1.73068 7.6003 1.53106 8.81259 1.6109 10.0227C1.69075 11.2329 2.04793 12.4084 2.6548 13.4585C2.70574 13.5466 2.73737 13.6446 2.74759 13.7459C2.75781 13.8472 2.7464 13.9495 2.7141 14.046L1.59375 17.4062L4.95391 16.2858C5.02709 16.2609 5.10389 16.2481 5.18121 16.2481C5.30744 16.2483 5.43139 16.2818 5.54059 16.3451C6.74252 17.0406 8.1064 17.4071 9.49501 17.408C10.8836 17.4089 12.248 17.044 13.4508 16.3501C14.6536 15.6563 15.6524 14.6578 16.3468 13.4553C17.0412 12.2528 17.4066 10.8886 17.4062 9.49995Z" fill="current"/>
</svg>
