<svg width="14" height="14" viewBox="0 0 14 14" fill="none" xmlns="http://www.w3.org/2000/svg">
<path d="M10.2105 4.91453C10.2628 4.96677 10.3043 5.02881 10.3326 5.0971C10.3609 5.16538 10.3754 5.23858 10.3754 5.3125C10.3754 5.38642 10.3609 5.45962 10.3326 5.5279C10.3043 5.59619 10.2628 5.65823 10.2105 5.71047L6.27297 9.64797C6.22073 9.70027 6.15869 9.74176 6.0904 9.77007C6.02212 9.79837 5.94892 9.81294 5.875 9.81294C5.80108 9.81294 5.72788 9.79837 5.6596 9.77007C5.59131 9.74176 5.52927 9.70027 5.47703 9.64797L3.78953 7.96047C3.68398 7.85492 3.62469 7.71177 3.62469 7.5625C3.62469 7.41323 3.68398 7.27008 3.78953 7.16453C3.89508 7.05898 4.03823 6.99969 4.1875 6.99969C4.33677 6.99969 4.47992 7.05898 4.58547 7.16453L5.875 8.45477L9.41453 4.91453C9.46677 4.86223 9.52881 4.82074 9.5971 4.79244C9.66538 4.76413 9.73858 4.74956 9.8125 4.74956C9.88642 4.74956 9.95962 4.76413 10.0279 4.79244C10.0962 4.82074 10.1582 4.86223 10.2105 4.91453ZM13.75 1.375V12.625C13.75 12.9234 13.6315 13.2095 13.4205 13.4205C13.2095 13.6315 12.9234 13.75 12.625 13.75H1.375C1.07663 13.75 0.790483 13.6315 0.579505 13.4205C0.368526 13.2095 0.25 12.9234 0.25 12.625V1.375C0.25 1.07663 0.368526 0.790483 0.579505 0.579505C0.790483 0.368526 1.07663 0.25 1.375 0.25H12.625C12.9234 0.25 13.2095 0.368526 13.4205 0.579505C13.6315 0.790483 13.75 1.07663 13.75 1.375ZM12.625 12.625V1.375H1.375V12.625H12.625Z" fill="black"/>
</svg>
