<svg width="19" height="19" viewBox="0 0 19 19" fill="none" xmlns="http://www.w3.org/2000/svg">
<path d="M17.7036 7.76421L10.5161 0.576707C10.2466 0.307327 9.88108 0.156006 9.49999 0.156006C9.11891 0.156006 8.75342 0.307327 8.48386 0.576707L1.29636 7.76421C1.16223 7.89734 1.0559 8.05582 0.983564 8.23042C0.911226 8.40501 0.874321 8.59225 0.874994 8.78124V17.4062C0.874994 17.5969 0.950719 17.7797 1.08551 17.9145C1.2203 18.0493 1.40312 18.125 1.59374 18.125H7.34374C7.53437 18.125 7.71719 18.0493 7.85198 17.9145C7.98677 17.7797 8.06249 17.5969 8.06249 17.4062V12.375H10.9375V17.4062C10.9375 17.5969 11.0132 17.7797 11.148 17.9145C11.2828 18.0493 11.4656 18.125 11.6562 18.125H17.4062C17.5969 18.125 17.7797 18.0493 17.9145 17.9145C18.0493 17.7797 18.125 17.5969 18.125 17.4062V8.78124C18.1257 8.59225 18.0888 8.40501 18.0164 8.23042C17.9441 8.05582 17.8378 7.89734 17.7036 7.76421ZM16.6875 16.6875H12.375V11.6562C12.375 11.4656 12.2993 11.2828 12.1645 11.148C12.0297 11.0132 11.8469 10.9375 11.6562 10.9375H7.34374C7.15312 10.9375 6.9703 11.0132 6.83551 11.148C6.70072 11.2828 6.62499 11.4656 6.62499 11.6562V16.6875H2.31249V8.78124L9.49999 1.59374L16.6875 8.78124V16.6875Z" fill="current"/>
</svg>
