<svg width="16" height="14" viewBox="0 0 16 14" fill="none" xmlns="http://www.w3.org/2000/svg">
<path d="M10.8125 8.0625C10.8125 8.21168 10.7532 8.35476 10.6477 8.46025C10.5423 8.56574 10.3992 8.625 10.25 8.625H8.5625V10.3125C8.5625 10.4617 8.50324 10.6048 8.39775 10.7102C8.29226 10.8157 8.14918 10.875 8 10.875C7.85082 10.875 7.70774 10.8157 7.60225 10.7102C7.49676 10.6048 7.4375 10.4617 7.4375 10.3125V8.625H5.75C5.60082 8.625 5.45774 8.56574 5.35225 8.46025C5.24676 8.35476 5.1875 8.21168 5.1875 8.0625C5.1875 7.91332 5.24676 7.77024 5.35225 7.66475C5.45774 7.55926 5.60082 7.5 5.75 7.5H7.4375V5.8125C7.4375 5.66332 7.49676 5.52024 7.60225 5.41475C7.70774 5.30926 7.85082 5.25 8 5.25C8.14918 5.25 8.29226 5.30926 8.39775 5.41475C8.50324 5.52024 8.5625 5.66332 8.5625 5.8125V7.5H10.25C10.3992 7.5 10.5423 7.55926 10.6477 7.66475C10.7532 7.77024 10.8125 7.91332 10.8125 8.0625ZM15.3125 4.125V12C15.3125 12.4476 15.1347 12.8768 14.8182 13.1932C14.5018 13.5097 14.0726 13.6875 13.625 13.6875H2.375C1.92745 13.6875 1.49822 13.5097 1.18176 13.1932C0.86529 12.8768 0.6875 12.4476 0.6875 12V4.125C0.6875 3.67745 0.86529 3.24822 1.18176 2.93176C1.49822 2.61529 1.92745 2.4375 2.375 2.4375H4.32406L5.11719 1.25062C5.21974 1.09691 5.35858 0.970825 5.52144 0.883511C5.6843 0.796196 5.86615 0.750342 6.05094 0.75H9.94906C10.1338 0.750342 10.3157 0.796196 10.4786 0.883511C10.6414 0.970825 10.7803 1.09691 10.8828 1.25062L11.6759 2.4375H13.625C14.0726 2.4375 14.5018 2.61529 14.8182 2.93176C15.1347 3.24822 15.3125 3.67745 15.3125 4.125ZM14.1875 4.125C14.1875 3.97582 14.1282 3.83274 14.0227 3.72725C13.9173 3.62176 13.7742 3.5625 13.625 3.5625H11.375C11.2824 3.56256 11.1912 3.53974 11.1095 3.49608C11.0278 3.45241 10.9581 3.38924 10.9067 3.31219L9.94906 1.875H6.05094L5.09328 3.31219C5.04187 3.38924 4.97223 3.45241 4.89053 3.49608C4.80884 3.53974 4.71763 3.56256 4.625 3.5625H2.375C2.22582 3.5625 2.08274 3.62176 1.97725 3.72725C1.87176 3.83274 1.8125 3.97582 1.8125 4.125V12C1.8125 12.1492 1.87176 12.2923 1.97725 12.3977C2.08274 12.5032 2.22582 12.5625 2.375 12.5625H13.625C13.7742 12.5625 13.9173 12.5032 14.0227 12.3977C14.1282 12.2923 14.1875 12.1492 14.1875 12V4.125Z" fill="#A8A8A8"/>
</svg>
