<svg width="15" height="14" viewBox="0 0 15 14" fill="none" xmlns="http://www.w3.org/2000/svg">
<path d="M7.49718 0.0273438C3.35712 0.0273438 0 2.69079 0 5.9776C0 8.10269 1.40255 9.96428 3.51483 11.0212L2.75441 13.7554C2.75441 13.7554 2.74033 13.8829 2.82201 13.9311C2.90368 13.9793 3.00225 13.9424 3.00225 13.9424C3.23883 13.9084 5.73413 12.1432 6.17067 11.8372C6.60158 11.8995 7.04938 11.9307 7.50282 11.9307C11.6429 11.9307 15 9.26724 15 5.98044C15 2.69363 11.6373 0.0273438 7.49718 0.0273438Z" fill="#401D1D"/>
<path d="M3.35149 8.05165C3.1121 8.05165 2.91777 7.86464 2.91777 7.63513V5.04818H2.24184C2.00808 5.04818 1.81938 4.85834 1.81938 4.62316C1.81938 4.38799 2.01089 4.19815 2.24184 4.19815H4.45832C4.69208 4.19815 4.88078 4.38799 4.88078 4.62316C4.88078 4.85834 4.68926 5.04818 4.45832 5.04818H3.78239V7.63513C3.78239 7.86181 3.58525 8.05165 3.34867 8.05165H3.35149ZM7.14514 8.04598C6.96489 8.04598 6.82689 7.97231 6.78465 7.8533L6.5706 7.28661H5.25254L5.0385 7.8533C4.99625 7.97231 4.85825 8.04598 4.678 8.04598C4.58224 8.04598 4.4893 8.02615 4.40199 7.98931C4.28371 7.93264 4.16824 7.78247 4.30061 7.37162L5.33421 4.63166C5.40744 4.42199 5.62993 4.20665 5.91157 4.20098C6.19321 4.19531 6.41852 4.42199 6.48893 4.63166L7.52254 7.37162C7.65491 7.78247 7.53943 7.93831 7.42115 7.98931C7.33665 8.02898 7.2409 8.04598 7.14514 8.04598ZM6.34248 6.51591L5.91157 5.28053L5.48067 6.51591H6.34248ZM8.21818 7.98931C7.99287 7.98931 7.80417 7.8108 7.80417 7.59263V4.63166C7.80417 4.39082 8.00132 4.19531 8.24634 4.19531C8.49137 4.19531 8.68851 4.39365 8.68851 4.63166V7.18744H9.60665C9.83196 7.18744 10.0207 7.36595 10.0207 7.58413C10.0207 7.8023 9.83478 7.98081 9.60665 7.98081L8.21818 7.98931ZM10.1868 7.60963V4.6345C10.1868 4.39366 10.384 4.19815 10.6205 4.19815C10.8571 4.19815 11.0543 4.39649 11.0543 4.6345V5.56954L12.2653 4.35115C12.3986 4.21704 12.6506 4.22879 12.8032 4.38232C12.9466 4.52654 12.9839 4.77031 12.8342 4.92351L11.8429 5.91522L12.9074 7.33195C13.0505 7.51617 13.0158 7.8031 12.8229 7.93831C12.6328 8.07998 12.3536 8.03276 12.2174 7.8533L11.2035 6.50175L11.0543 6.65192V7.60113C11.0543 8.16652 10.1868 8.18829 10.1868 7.60963Z" fill="#FFE812"/>
</svg>
