<svg width="19" height="25" viewBox="0 0 19 25" fill="none" xmlns="http://www.w3.org/2000/svg">
<path fill-rule="evenodd" clip-rule="evenodd" d="M9.35455 0C14.5209 0 18.7091 4.18817 18.7091 9.35455C18.7091 9.98517 18.6467 10.6012 18.5277 11.1968C17.7021 17.4187 9.4037 24.5 9.4037 24.5C9.4037 24.5 2.34171 18.4738 0.59894 12.6552C0.211817 11.6288 0 10.5164 0 9.35455C0 4.18817 4.18817 0 9.35455 0Z" fill="#5874E9"/>
<path d="M12.9182 9.35453C12.9182 7.38639 11.3227 5.79089 9.35453 5.79089C7.38639 5.79089 5.79089 7.38639 5.79089 9.35453C5.79089 11.3227 7.38639 12.9182 9.35453 12.9182C11.3227 12.9182 12.9182 11.3227 12.9182 9.35453Z" fill="white"/>
</svg>
