<svg width="16" height="16" viewBox="0 0 16 16" fill="none" xmlns="http://www.w3.org/2000/svg">
<path d="M8 0.6875C6.55373 0.6875 5.13993 1.11637 3.9374 1.91988C2.73486 2.72339 1.7976 3.86544 1.24413 5.20163C0.690668 6.53781 0.545857 8.00811 0.828011 9.4266C1.11017 10.8451 1.80661 12.148 2.82928 13.1707C3.85196 14.1934 5.15492 14.8898 6.57341 15.172C7.99189 15.4541 9.46219 15.3093 10.7984 14.7559C12.1346 14.2024 13.2766 13.2651 14.0801 12.0626C14.8836 10.8601 15.3125 9.44628 15.3125 8C15.3105 6.06123 14.5394 4.20246 13.1685 2.83154C11.7975 1.46063 9.93877 0.689547 8 0.6875ZM8 14.1875C6.77623 14.1875 5.57994 13.8246 4.56241 13.1447C3.54488 12.4648 2.75182 11.4985 2.2835 10.3679C1.81518 9.23724 1.69265 7.99314 1.93139 6.79288C2.17014 5.59262 2.75944 4.49011 3.62478 3.62478C4.49012 2.75944 5.59262 2.17014 6.79288 1.93139C7.99314 1.69264 9.23724 1.81518 10.3679 2.2835C11.4985 2.75181 12.4648 3.54488 13.1447 4.56241C13.8246 5.57994 14.1875 6.77623 14.1875 8C14.1856 9.64046 13.5331 11.2132 12.3732 12.3732C11.2132 13.5331 9.64046 14.1856 8 14.1875ZM8.5625 4.625H6.3125C6.16332 4.625 6.02025 4.68426 5.91476 4.78975C5.80927 4.89524 5.75 5.03832 5.75 5.1875V10.8125C5.75 10.9617 5.80927 11.1048 5.91476 11.2102C6.02025 11.3157 6.16332 11.375 6.3125 11.375C6.46169 11.375 6.60476 11.3157 6.71025 11.2102C6.81574 11.1048 6.875 10.9617 6.875 10.8125V9.6875H8.5625C9.23383 9.6875 9.87767 9.42082 10.3524 8.94611C10.8271 8.47141 11.0938 7.82758 11.0938 7.15625C11.0938 6.48492 10.8271 5.84109 10.3524 5.36639C9.87767 4.89168 9.23383 4.625 8.5625 4.625ZM8.5625 8.5625H6.875V5.75H8.5625C8.93546 5.75 9.29315 5.89816 9.55687 6.16188C9.82059 6.4256 9.96875 6.78329 9.96875 7.15625C9.96875 7.52921 9.82059 7.8869 9.55687 8.15062C9.29315 8.41434 8.93546 8.5625 8.5625 8.5625Z" fill="black"/>
</svg>
