<svg width="16" height="15" viewBox="0 0 16 15" fill="none" xmlns="http://www.w3.org/2000/svg">
<path d="M15.148 13.852L11.6274 10.3322C12.6478 9.10711 13.1566 7.53583 13.048 5.94518C12.9394 4.35453 12.2218 2.86699 11.0444 1.79199C9.86693 0.716992 8.32038 0.137312 6.72644 0.173537C5.1325 0.209762 3.61389 0.859103 2.48651 1.98648C1.35913 3.11386 0.709792 4.63247 0.673568 6.22641C0.637343 7.82035 1.21702 9.3669 2.29202 10.5443C3.36702 11.7218 4.85456 12.4394 6.44521 12.548C8.03586 12.6566 9.60714 12.1478 10.8322 11.1274L14.352 14.6479C14.4043 14.7002 14.4663 14.7417 14.5346 14.7699C14.6029 14.7982 14.6761 14.8128 14.75 14.8128C14.8239 14.8128 14.8971 14.7982 14.9654 14.7699C15.0337 14.7417 15.0957 14.7002 15.148 14.6479C15.2002 14.5957 15.2417 14.5336 15.27 14.4654C15.2983 14.3971 15.3128 14.3239 15.3128 14.25C15.3128 14.1761 15.2983 14.1029 15.27 14.0346C15.2417 13.9663 15.2002 13.9043 15.148 13.852ZM1.81251 6.37498C1.81251 5.37371 2.10942 4.39493 2.66569 3.5624C3.22197 2.72988 4.01262 2.08101 4.93767 1.69784C5.86272 1.31467 6.88062 1.21441 7.86265 1.40975C8.84468 1.60509 9.74673 2.08725 10.4547 2.79525C11.1627 3.50325 11.6449 4.4053 11.8402 5.38733C12.0356 6.36936 11.9353 7.38726 11.5521 8.31231C11.169 9.23736 10.5201 10.028 9.68758 10.5843C8.85506 11.1406 7.87628 11.4375 6.87501 11.4375C5.53281 11.436 4.246 10.9021 3.29692 9.95306C2.34784 9.00398 1.814 7.71718 1.81251 6.37498Z" fill="black"/>
</svg>
