<svg width="13" height="13" viewBox="0 0 13 13" fill="none" xmlns="http://www.w3.org/2000/svg">
<path d="M6.23755 0.473753C6.35176 0.267579 6.6482 0.267579 6.76241 0.473754L8.64444 3.87129C8.68581 3.94597 8.75703 3.99949 8.84027 4.01844L12.5176 4.85574C12.7373 4.90574 12.8255 5.17089 12.6796 5.34252L10.1572 8.31089C10.1046 8.37271 10.0794 8.45317 10.0871 8.53392L10.467 12.479C10.4892 12.7097 10.2526 12.8774 10.0423 12.78L6.6261 11.1971C6.54611 11.16 6.45386 11.16 6.37386 11.1971L2.95767 12.78C2.74737 12.8774 2.51071 12.7097 2.53293 12.479L2.91282 8.53391C2.92059 8.45317 2.89534 8.37271 2.8428 8.31089L0.320316 5.34252C0.174468 5.17089 0.26271 4.90574 0.482318 4.85574L4.1597 4.01844C4.24293 3.99949 4.31415 3.94597 4.35552 3.87129L6.23755 0.473753Z" fill="curent"/>
</svg>
