<svg width="19" height="19" viewBox="0 0 19 19" fill="none" xmlns="http://www.w3.org/2000/svg">
<path d="M18.7467 17.0469C17.3784 14.6813 15.2698 12.985 12.8089 12.1809C14.0262 11.4563 14.9719 10.3522 15.5009 9.03802C16.0298 7.72389 16.1128 6.27246 15.737 4.90661C15.3612 3.54077 14.5475 2.33604 13.4208 1.47743C12.294 0.618819 10.9166 0.153809 9.5 0.153809C8.08341 0.153809 6.70598 0.618819 5.57924 1.47743C4.45251 2.33604 3.63877 3.54077 3.26299 4.90661C2.88722 6.27246 2.97018 7.72389 3.49914 9.03802C4.02811 10.3522 4.97382 11.4563 6.19105 12.1809C3.73023 12.9841 1.6216 14.6804 0.25328 17.0469C0.203102 17.1287 0.169818 17.2197 0.155395 17.3146C0.140971 17.4095 0.145698 17.5063 0.169298 17.5994C0.192898 17.6924 0.234893 17.7798 0.292804 17.8563C0.350716 17.9328 0.42337 17.997 0.506482 18.045C0.589594 18.093 0.68148 18.1239 0.776717 18.1358C0.871955 18.1477 0.968615 18.1405 1.06099 18.1144C1.15337 18.0884 1.2396 18.0441 1.31459 17.9842C1.38958 17.9243 1.45181 17.85 1.49762 17.7656C3.19027 14.8403 6.18207 13.0938 9.5 13.0938C12.8179 13.0938 15.8097 14.8403 17.5024 17.7656C17.5482 17.85 17.6104 17.9243 17.6854 17.9842C17.7604 18.0441 17.8466 18.0884 17.939 18.1144C18.0314 18.1405 18.128 18.1477 18.2233 18.1358C18.3185 18.1239 18.4104 18.093 18.4935 18.045C18.5766 17.997 18.6493 17.9328 18.7072 17.8563C18.7651 17.7798 18.8071 17.6924 18.8307 17.5994C18.8543 17.5063 18.859 17.4095 18.8446 17.3146C18.8302 17.2197 18.7969 17.1287 18.7467 17.0469ZM4.46875 6.625C4.46875 5.62992 4.76383 4.65717 5.31667 3.82979C5.86951 3.00241 6.65528 2.35754 7.57462 1.97673C8.49396 1.59593 9.50558 1.49629 10.4815 1.69043C11.4575 1.88456 12.354 2.36374 13.0576 3.06737C13.7613 3.771 14.2404 4.66749 14.4346 5.64345C14.6287 6.61942 14.5291 7.63104 14.1483 8.55038C13.7675 9.46972 13.1226 10.2555 12.2952 10.8083C11.4678 11.3612 10.4951 11.6563 9.5 11.6563C8.16607 11.6548 6.88718 11.1243 5.94394 10.1811C5.00071 9.23782 4.47018 7.95893 4.46875 6.625Z" fill="current"/>
</svg>
